<mxfile host="Electron" modified="2023-10-12T14:47:45.642Z" agent="Mozilla/5.0 (Windows NT 10.0; Win64; x64) AppleWebKit/537.36 (KHTML, like Gecko) draw.io/21.6.8 Chrome/114.0.5735.289 Electron/25.5.0 Safari/537.36" etag="yeUdy5MIhBJWRv65pVj0" version="21.6.8" type="device">
  <diagram name="Page-1" id="bAraUUxEUvMgR-fUj3KW">
    <mxGraphModel dx="1954" dy="1626" grid="1" gridSize="10" guides="1" tooltips="1" connect="1" arrows="1" fold="1" page="1" pageScale="1" pageWidth="850" pageHeight="1100" math="0" shadow="0">
      <root>
        <mxCell id="0" />
        <mxCell id="1" parent="0" />
        <mxCell id="56HJz9ENn2LGzULkVmn6-4" value="Customer" style="whiteSpace=wrap;html=1;align=center;fillColor=#6666FF;" parent="1" vertex="1">
          <mxGeometry x="120" y="-30" width="100" height="40" as="geometry" />
        </mxCell>
        <mxCell id="56HJz9ENn2LGzULkVmn6-6" value="Employee" style="whiteSpace=wrap;html=1;align=center;fillColor=#6666FF;" parent="1" vertex="1">
          <mxGeometry x="780" y="190" width="100" height="40" as="geometry" />
        </mxCell>
        <mxCell id="56HJz9ENn2LGzULkVmn6-7" value="Manager" style="whiteSpace=wrap;html=1;align=center;fillColor=#6666FF;" parent="1" vertex="1">
          <mxGeometry x="980" y="440" width="100" height="40" as="geometry" />
        </mxCell>
        <mxCell id="56HJz9ENn2LGzULkVmn6-8" value="Dependent" style="shape=ext;margin=3;double=1;whiteSpace=wrap;html=1;align=center;fillColor=#9999FF;" parent="1" vertex="1">
          <mxGeometry x="460" y="50" width="100" height="40" as="geometry" />
        </mxCell>
        <mxCell id="56HJz9ENn2LGzULkVmn6-9" value="Service" style="whiteSpace=wrap;html=1;align=center;fillColor=#6666FF;" parent="1" vertex="1">
          <mxGeometry x="290" y="480" width="100" height="40" as="geometry" />
        </mxCell>
        <mxCell id="56HJz9ENn2LGzULkVmn6-11" value="Outlet" style="whiteSpace=wrap;html=1;align=center;fillColor=#6666FF;" parent="1" vertex="1">
          <mxGeometry x="10" y="490" width="130" height="50" as="geometry" />
        </mxCell>
        <mxCell id="56HJz9ENn2LGzULkVmn6-14" value="Provide" style="shape=rhombus;perimeter=rhombusPerimeter;whiteSpace=wrap;html=1;align=center;fillColor=#FF9999;" parent="1" vertex="1">
          <mxGeometry x="110" y="310" width="120" height="60" as="geometry" />
        </mxCell>
        <mxCell id="56HJz9ENn2LGzULkVmn6-16" value="" style="endArrow=none;html=1;rounded=0;entryX=0.5;entryY=1;entryDx=0;entryDy=0;exitX=0.5;exitY=0;exitDx=0;exitDy=0;" parent="1" source="56HJz9ENn2LGzULkVmn6-11" target="56HJz9ENn2LGzULkVmn6-14" edge="1">
          <mxGeometry relative="1" as="geometry">
            <mxPoint x="220" y="390" as="sourcePoint" />
            <mxPoint x="380" y="390" as="targetPoint" />
          </mxGeometry>
        </mxCell>
        <mxCell id="56HJz9ENn2LGzULkVmn6-17" value="" style="endArrow=none;html=1;rounded=0;entryX=0.5;entryY=0;entryDx=0;entryDy=0;exitX=0.5;exitY=1;exitDx=0;exitDy=0;" parent="1" source="56HJz9ENn2LGzULkVmn6-4" target="56HJz9ENn2LGzULkVmn6-14" edge="1">
          <mxGeometry relative="1" as="geometry">
            <mxPoint x="160" y="190" as="sourcePoint" />
            <mxPoint x="320" y="190" as="targetPoint" />
          </mxGeometry>
        </mxCell>
        <mxCell id="56HJz9ENn2LGzULkVmn6-20" value="Item" style="whiteSpace=wrap;html=1;align=center;fillColor=#6666FF;" parent="1" vertex="1">
          <mxGeometry x="-50" y="260" width="100" height="40" as="geometry" />
        </mxCell>
        <mxCell id="56HJz9ENn2LGzULkVmn6-21" value="" style="endArrow=none;html=1;rounded=0;exitX=1;exitY=0.75;exitDx=0;exitDy=0;entryX=0;entryY=0.5;entryDx=0;entryDy=0;" parent="1" source="56HJz9ENn2LGzULkVmn6-20" target="56HJz9ENn2LGzULkVmn6-14" edge="1">
          <mxGeometry relative="1" as="geometry">
            <mxPoint y="380" as="sourcePoint" />
            <mxPoint x="230" y="310" as="targetPoint" />
          </mxGeometry>
        </mxCell>
        <mxCell id="56HJz9ENn2LGzULkVmn6-22" value="Choose" style="shape=rhombus;perimeter=rhombusPerimeter;whiteSpace=wrap;html=1;align=center;fillColor=#FF6666;" parent="1" vertex="1">
          <mxGeometry x="250" y="290" width="120" height="60" as="geometry" />
        </mxCell>
        <mxCell id="56HJz9ENn2LGzULkVmn6-29" value="Payment" style="whiteSpace=wrap;html=1;align=center;fillColor=#6666FF;" parent="1" vertex="1">
          <mxGeometry x="385" y="790" width="80" height="40" as="geometry" />
        </mxCell>
        <mxCell id="56HJz9ENn2LGzULkVmn6-32" value="Online Pay" style="shape=rhombus;perimeter=rhombusPerimeter;whiteSpace=wrap;html=1;align=center;fillColor=#FF6666;" parent="1" vertex="1">
          <mxGeometry x="327.5" y="620" width="120" height="60" as="geometry" />
        </mxCell>
        <mxCell id="56HJz9ENn2LGzULkVmn6-33" value="Direct Pay" style="shape=rhombus;perimeter=rhombusPerimeter;whiteSpace=wrap;html=1;align=center;fillColor=#FF6666;" parent="1" vertex="1">
          <mxGeometry x="140" y="630" width="120" height="60" as="geometry" />
        </mxCell>
        <mxCell id="56HJz9ENn2LGzULkVmn6-44" value="Manage" style="shape=rhombus;perimeter=rhombusPerimeter;whiteSpace=wrap;html=1;align=center;fillColor=#FF6666;" parent="1" vertex="1">
          <mxGeometry x="770" y="330" width="120" height="60" as="geometry" />
        </mxCell>
        <mxCell id="56HJz9ENn2LGzULkVmn6-47" value="Manage" style="shape=rhombus;perimeter=rhombusPerimeter;whiteSpace=wrap;html=1;align=center;fillColor=#FF6666;" parent="1" vertex="1">
          <mxGeometry x="810" y="570" width="120" height="60" as="geometry" />
        </mxCell>
        <mxCell id="56HJz9ENn2LGzULkVmn6-53" value="Depend" style="shape=rhombus;double=1;perimeter=rhombusPerimeter;whiteSpace=wrap;html=1;align=center;fillColor=#FF6666;" parent="1" vertex="1">
          <mxGeometry x="630" y="40" width="120" height="60" as="geometry" />
        </mxCell>
        <mxCell id="56HJz9ENn2LGzULkVmn6-54" value="Marketer" style="whiteSpace=wrap;html=1;align=center;fillColor=#6666FF;" parent="1" vertex="1">
          <mxGeometry x="540" y="470" width="100" height="40" as="geometry" />
        </mxCell>
        <mxCell id="56HJz9ENn2LGzULkVmn6-55" value="Promote" style="shape=rhombus;perimeter=rhombusPerimeter;whiteSpace=wrap;html=1;align=center;fillColor=#FF6666;" parent="1" vertex="1">
          <mxGeometry x="460" y="340" width="120" height="60" as="geometry" />
        </mxCell>
        <mxCell id="56HJz9ENn2LGzULkVmn6-60" value="Supplier" style="whiteSpace=wrap;html=1;align=center;fillColor=#6666FF;" parent="1" vertex="1">
          <mxGeometry x="-10" y="850" width="100" height="40" as="geometry" />
        </mxCell>
        <mxCell id="56HJz9ENn2LGzULkVmn6-61" value="Supply" style="shape=rhombus;perimeter=rhombusPerimeter;whiteSpace=wrap;html=1;align=center;fillColor=#FF6666;" parent="1" vertex="1">
          <mxGeometry x="-20" y="680" width="120" height="60" as="geometry" />
        </mxCell>
        <mxCell id="56HJz9ENn2LGzULkVmn6-66" value="Manage" style="shape=rhombus;perimeter=rhombusPerimeter;whiteSpace=wrap;html=1;align=center;fillColor=#FF6666;" parent="1" vertex="1">
          <mxGeometry x="160" y="960" width="120" height="60" as="geometry" />
        </mxCell>
        <mxCell id="56HJz9ENn2LGzULkVmn6-72" value="" style="shape=link;html=1;rounded=0;exitX=0.5;exitY=0;exitDx=0;exitDy=0;entryX=0.75;entryY=1;entryDx=0;entryDy=0;" parent="1" source="56HJz9ENn2LGzULkVmn6-22" target="56HJz9ENn2LGzULkVmn6-4" edge="1">
          <mxGeometry relative="1" as="geometry">
            <mxPoint x="400" y="210" as="sourcePoint" />
            <mxPoint x="330" y="160" as="targetPoint" />
          </mxGeometry>
        </mxCell>
        <mxCell id="56HJz9ENn2LGzULkVmn6-73" value="N" style="resizable=0;html=1;whiteSpace=wrap;align=right;verticalAlign=bottom;" parent="56HJz9ENn2LGzULkVmn6-72" connectable="0" vertex="1">
          <mxGeometry x="1" relative="1" as="geometry">
            <mxPoint x="55" y="-30" as="offset" />
          </mxGeometry>
        </mxCell>
        <mxCell id="56HJz9ENn2LGzULkVmn6-387" value="1" style="edgeLabel;html=1;align=center;verticalAlign=middle;resizable=0;points=[];" parent="56HJz9ENn2LGzULkVmn6-72" vertex="1" connectable="0">
          <mxGeometry x="0.8088" y="3" relative="1" as="geometry">
            <mxPoint x="17" y="-8" as="offset" />
          </mxGeometry>
        </mxCell>
        <mxCell id="56HJz9ENn2LGzULkVmn6-74" value="" style="endArrow=none;html=1;rounded=0;exitX=0.5;exitY=1;exitDx=0;exitDy=0;entryX=0.5;entryY=0;entryDx=0;entryDy=0;" parent="1" source="56HJz9ENn2LGzULkVmn6-22" target="56HJz9ENn2LGzULkVmn6-9" edge="1">
          <mxGeometry relative="1" as="geometry">
            <mxPoint x="300" y="420" as="sourcePoint" />
            <mxPoint x="460" y="420" as="targetPoint" />
          </mxGeometry>
        </mxCell>
        <mxCell id="56HJz9ENn2LGzULkVmn6-388" value="N" style="edgeLabel;html=1;align=center;verticalAlign=middle;resizable=0;points=[];" parent="56HJz9ENn2LGzULkVmn6-74" vertex="1" connectable="0">
          <mxGeometry x="0.6281" y="4" relative="1" as="geometry">
            <mxPoint x="4" y="2" as="offset" />
          </mxGeometry>
        </mxCell>
        <mxCell id="56HJz9ENn2LGzULkVmn6-76" value="" style="shape=link;html=1;rounded=0;exitX=1;exitY=0.5;exitDx=0;exitDy=0;" parent="1" source="56HJz9ENn2LGzULkVmn6-8" target="56HJz9ENn2LGzULkVmn6-53" edge="1">
          <mxGeometry relative="1" as="geometry">
            <mxPoint x="530" y="90" as="sourcePoint" />
            <mxPoint x="690" y="90" as="targetPoint" />
          </mxGeometry>
        </mxCell>
        <mxCell id="56HJz9ENn2LGzULkVmn6-85" value="" style="shape=link;html=1;rounded=0;entryX=0.5;entryY=1;entryDx=0;entryDy=0;exitX=0.5;exitY=0;exitDx=0;exitDy=0;" parent="1" source="56HJz9ENn2LGzULkVmn6-44" target="56HJz9ENn2LGzULkVmn6-6" edge="1">
          <mxGeometry relative="1" as="geometry">
            <mxPoint x="710" y="340" as="sourcePoint" />
            <mxPoint x="870" y="340" as="targetPoint" />
          </mxGeometry>
        </mxCell>
        <mxCell id="56HJz9ENn2LGzULkVmn6-89" value="" style="endArrow=none;html=1;rounded=0;exitX=1;exitY=1;exitDx=0;exitDy=0;entryX=0.5;entryY=0;entryDx=0;entryDy=0;" parent="1" source="56HJz9ENn2LGzULkVmn6-44" target="56HJz9ENn2LGzULkVmn6-7" edge="1">
          <mxGeometry relative="1" as="geometry">
            <mxPoint x="310" y="380" as="sourcePoint" />
            <mxPoint x="470" y="380" as="targetPoint" />
          </mxGeometry>
        </mxCell>
        <mxCell id="56HJz9ENn2LGzULkVmn6-90" value="1" style="resizable=0;html=1;whiteSpace=wrap;align=right;verticalAlign=bottom;" parent="56HJz9ENn2LGzULkVmn6-89" connectable="0" vertex="1">
          <mxGeometry x="1" relative="1" as="geometry">
            <mxPoint x="-25" y="-20" as="offset" />
          </mxGeometry>
        </mxCell>
        <mxCell id="56HJz9ENn2LGzULkVmn6-95" value="Manage" style="shape=rhombus;perimeter=rhombusPerimeter;whiteSpace=wrap;html=1;align=center;fillColor=#FF6666;" parent="1" vertex="1">
          <mxGeometry x="980" y="240" width="120" height="60" as="geometry" />
        </mxCell>
        <mxCell id="56HJz9ENn2LGzULkVmn6-96" value="" style="shape=link;html=1;rounded=0;exitX=1;exitY=0.5;exitDx=0;exitDy=0;entryX=0.443;entryY=0.053;entryDx=0;entryDy=0;entryPerimeter=0;" parent="1" source="56HJz9ENn2LGzULkVmn6-4" target="56HJz9ENn2LGzULkVmn6-95" edge="1">
          <mxGeometry relative="1" as="geometry">
            <mxPoint x="740" y="140" as="sourcePoint" />
            <mxPoint x="960" y="260" as="targetPoint" />
            <Array as="points">
              <mxPoint x="420" y="-10" />
              <mxPoint x="660" y="-10" />
              <mxPoint x="1030" y="-10" />
            </Array>
          </mxGeometry>
        </mxCell>
        <mxCell id="56HJz9ENn2LGzULkVmn6-203" value="N" style="edgeLabel;html=1;align=center;verticalAlign=middle;resizable=0;points=[];" parent="56HJz9ENn2LGzULkVmn6-96" vertex="1" connectable="0">
          <mxGeometry x="-0.5434" y="-75" relative="1" as="geometry">
            <mxPoint x="108" y="-15" as="offset" />
          </mxGeometry>
        </mxCell>
        <mxCell id="56HJz9ENn2LGzULkVmn6-98" value="" style="endArrow=none;html=1;rounded=0;exitX=0.5;exitY=1;exitDx=0;exitDy=0;entryX=0.588;entryY=-0.013;entryDx=0;entryDy=0;entryPerimeter=0;" parent="1" source="56HJz9ENn2LGzULkVmn6-95" target="56HJz9ENn2LGzULkVmn6-7" edge="1">
          <mxGeometry relative="1" as="geometry">
            <mxPoint x="770" y="340" as="sourcePoint" />
            <mxPoint x="1055" y="440" as="targetPoint" />
          </mxGeometry>
        </mxCell>
        <mxCell id="56HJz9ENn2LGzULkVmn6-99" value="1" style="resizable=0;html=1;whiteSpace=wrap;align=right;verticalAlign=bottom;" parent="56HJz9ENn2LGzULkVmn6-98" connectable="0" vertex="1">
          <mxGeometry x="1" relative="1" as="geometry">
            <mxPoint x="25" y="-10" as="offset" />
          </mxGeometry>
        </mxCell>
        <mxCell id="56HJz9ENn2LGzULkVmn6-108" value="" style="shape=link;html=1;rounded=0;exitX=0.25;exitY=1;exitDx=0;exitDy=0;entryX=0.5;entryY=0;entryDx=0;entryDy=0;" parent="1" source="56HJz9ENn2LGzULkVmn6-11" target="56HJz9ENn2LGzULkVmn6-61" edge="1">
          <mxGeometry relative="1" as="geometry">
            <mxPoint x="310" y="570" as="sourcePoint" />
            <mxPoint x="470" y="570" as="targetPoint" />
          </mxGeometry>
        </mxCell>
        <mxCell id="56HJz9ENn2LGzULkVmn6-109" value="N" style="resizable=0;html=1;whiteSpace=wrap;align=right;verticalAlign=bottom;" parent="56HJz9ENn2LGzULkVmn6-108" connectable="0" vertex="1">
          <mxGeometry x="1" relative="1" as="geometry">
            <mxPoint x="25" y="-105" as="offset" />
          </mxGeometry>
        </mxCell>
        <mxCell id="56HJz9ENn2LGzULkVmn6-118" value="" style="shape=link;html=1;rounded=0;exitX=0.5;exitY=1;exitDx=0;exitDy=0;entryX=0.5;entryY=0.01;entryDx=0;entryDy=0;entryPerimeter=0;" parent="1" source="56HJz9ENn2LGzULkVmn6-61" target="56HJz9ENn2LGzULkVmn6-60" edge="1">
          <mxGeometry relative="1" as="geometry">
            <mxPoint x="140" y="770" as="sourcePoint" />
            <mxPoint x="300" y="770" as="targetPoint" />
          </mxGeometry>
        </mxCell>
        <mxCell id="56HJz9ENn2LGzULkVmn6-119" value="M" style="resizable=0;html=1;whiteSpace=wrap;align=right;verticalAlign=bottom;" parent="56HJz9ENn2LGzULkVmn6-118" connectable="0" vertex="1">
          <mxGeometry x="1" relative="1" as="geometry">
            <mxPoint x="-10" y="-11" as="offset" />
          </mxGeometry>
        </mxCell>
        <mxCell id="56HJz9ENn2LGzULkVmn6-124" value="" style="endArrow=none;html=1;rounded=0;exitX=0.5;exitY=0;exitDx=0;exitDy=0;" parent="1" source="56HJz9ENn2LGzULkVmn6-32" edge="1">
          <mxGeometry relative="1" as="geometry">
            <mxPoint x="330" y="610" as="sourcePoint" />
            <mxPoint x="340" y="520" as="targetPoint" />
          </mxGeometry>
        </mxCell>
        <mxCell id="56HJz9ENn2LGzULkVmn6-125" value="M" style="resizable=0;html=1;whiteSpace=wrap;align=right;verticalAlign=bottom;" parent="56HJz9ENn2LGzULkVmn6-124" connectable="0" vertex="1">
          <mxGeometry x="1" relative="1" as="geometry">
            <mxPoint y="30" as="offset" />
          </mxGeometry>
        </mxCell>
        <mxCell id="56HJz9ENn2LGzULkVmn6-126" value="" style="shape=link;html=1;rounded=0;exitX=0.5;exitY=1;exitDx=0;exitDy=0;entryX=0.648;entryY=-0.055;entryDx=0;entryDy=0;entryPerimeter=0;" parent="1" source="56HJz9ENn2LGzULkVmn6-32" target="56HJz9ENn2LGzULkVmn6-29" edge="1">
          <mxGeometry relative="1" as="geometry">
            <mxPoint x="300" y="760" as="sourcePoint" />
            <mxPoint x="460" y="760" as="targetPoint" />
          </mxGeometry>
        </mxCell>
        <mxCell id="56HJz9ENn2LGzULkVmn6-127" value="N" style="resizable=0;html=1;whiteSpace=wrap;align=right;verticalAlign=bottom;" parent="56HJz9ENn2LGzULkVmn6-126" connectable="0" vertex="1">
          <mxGeometry x="1" relative="1" as="geometry">
            <mxPoint x="3" y="-18" as="offset" />
          </mxGeometry>
        </mxCell>
        <mxCell id="56HJz9ENn2LGzULkVmn6-130" value="" style="shape=link;html=1;rounded=0;entryX=1;entryY=0.5;entryDx=0;entryDy=0;exitX=0;exitY=0.5;exitDx=0;exitDy=0;" parent="1" source="56HJz9ENn2LGzULkVmn6-136" target="56HJz9ENn2LGzULkVmn6-54" edge="1">
          <mxGeometry relative="1" as="geometry">
            <mxPoint x="695" y="530" as="sourcePoint" />
            <mxPoint x="560" y="840" as="targetPoint" />
          </mxGeometry>
        </mxCell>
        <mxCell id="56HJz9ENn2LGzULkVmn6-384" value="1" style="edgeLabel;html=1;align=center;verticalAlign=middle;resizable=0;points=[];" parent="56HJz9ENn2LGzULkVmn6-130" vertex="1" connectable="0">
          <mxGeometry x="0.1661" y="-4" relative="1" as="geometry">
            <mxPoint x="-17" y="-6" as="offset" />
          </mxGeometry>
        </mxCell>
        <mxCell id="56HJz9ENn2LGzULkVmn6-136" value="Manage" style="shape=rhombus;perimeter=rhombusPerimeter;whiteSpace=wrap;html=1;align=center;fillColor=#FF6666;" parent="1" vertex="1">
          <mxGeometry x="730" y="445" width="120" height="65" as="geometry" />
        </mxCell>
        <mxCell id="56HJz9ENn2LGzULkVmn6-139" value="" style="endArrow=none;html=1;rounded=0;exitX=1;exitY=0.5;exitDx=0;exitDy=0;entryX=0;entryY=0.75;entryDx=0;entryDy=0;" parent="1" source="56HJz9ENn2LGzULkVmn6-136" target="56HJz9ENn2LGzULkVmn6-7" edge="1">
          <mxGeometry relative="1" as="geometry">
            <mxPoint x="530" y="550" as="sourcePoint" />
            <mxPoint x="690" y="550" as="targetPoint" />
          </mxGeometry>
        </mxCell>
        <mxCell id="56HJz9ENn2LGzULkVmn6-375" value="1" style="edgeLabel;html=1;align=center;verticalAlign=middle;resizable=0;points=[];" parent="56HJz9ENn2LGzULkVmn6-139" vertex="1" connectable="0">
          <mxGeometry x="0.6767" y="1" relative="1" as="geometry">
            <mxPoint x="-5" y="-10" as="offset" />
          </mxGeometry>
        </mxCell>
        <mxCell id="56HJz9ENn2LGzULkVmn6-142" value="" style="shape=link;html=1;rounded=0;exitX=0.5;exitY=1;exitDx=0;exitDy=0;entryX=0.187;entryY=-0.034;entryDx=0;entryDy=0;entryPerimeter=0;" parent="1" source="56HJz9ENn2LGzULkVmn6-33" target="56HJz9ENn2LGzULkVmn6-29" edge="1">
          <mxGeometry relative="1" as="geometry">
            <mxPoint x="250" y="720" as="sourcePoint" />
            <mxPoint x="410" y="720" as="targetPoint" />
          </mxGeometry>
        </mxCell>
        <mxCell id="56HJz9ENn2LGzULkVmn6-143" value="N" style="resizable=0;html=1;whiteSpace=wrap;align=right;verticalAlign=bottom;" parent="56HJz9ENn2LGzULkVmn6-142" connectable="0" vertex="1">
          <mxGeometry x="1" relative="1" as="geometry">
            <mxPoint x="-10" y="-14" as="offset" />
          </mxGeometry>
        </mxCell>
        <mxCell id="56HJz9ENn2LGzULkVmn6-145" value="" style="endArrow=none;html=1;rounded=0;exitX=0.5;exitY=0;exitDx=0;exitDy=0;entryX=0.75;entryY=1;entryDx=0;entryDy=0;" parent="1" source="56HJz9ENn2LGzULkVmn6-33" target="56HJz9ENn2LGzULkVmn6-11" edge="1">
          <mxGeometry relative="1" as="geometry">
            <mxPoint x="200" y="580" as="sourcePoint" />
            <mxPoint x="360" y="580" as="targetPoint" />
          </mxGeometry>
        </mxCell>
        <mxCell id="56HJz9ENn2LGzULkVmn6-146" value="M" style="resizable=0;html=1;whiteSpace=wrap;align=right;verticalAlign=bottom;" parent="56HJz9ENn2LGzULkVmn6-145" connectable="0" vertex="1">
          <mxGeometry x="1" relative="1" as="geometry">
            <mxPoint y="30" as="offset" />
          </mxGeometry>
        </mxCell>
        <mxCell id="56HJz9ENn2LGzULkVmn6-147" value="Works in" style="shape=rhombus;perimeter=rhombusPerimeter;whiteSpace=wrap;html=1;align=center;fillColor=#FF6666;" parent="1" vertex="1">
          <mxGeometry x="970" y="620" width="120" height="60" as="geometry" />
        </mxCell>
        <mxCell id="56HJz9ENn2LGzULkVmn6-148" value="" style="endArrow=none;html=1;rounded=0;exitX=0.5;exitY=1;exitDx=0;exitDy=0;entryX=0.5;entryY=0;entryDx=0;entryDy=0;" parent="1" source="56HJz9ENn2LGzULkVmn6-7" target="56HJz9ENn2LGzULkVmn6-147" edge="1">
          <mxGeometry relative="1" as="geometry">
            <mxPoint x="710" y="630" as="sourcePoint" />
            <mxPoint x="870" y="630" as="targetPoint" />
          </mxGeometry>
        </mxCell>
        <mxCell id="56HJz9ENn2LGzULkVmn6-379" value="1" style="edgeLabel;html=1;align=center;verticalAlign=middle;resizable=0;points=[];" parent="56HJz9ENn2LGzULkVmn6-148" vertex="1" connectable="0">
          <mxGeometry x="-0.1714" y="-1" relative="1" as="geometry">
            <mxPoint x="-9" y="-23" as="offset" />
          </mxGeometry>
        </mxCell>
        <mxCell id="56HJz9ENn2LGzULkVmn6-199" value="" style="endArrow=none;html=1;rounded=0;exitX=1;exitY=0.5;exitDx=0;exitDy=0;entryX=0.5;entryY=0;entryDx=0;entryDy=0;" parent="1" source="56HJz9ENn2LGzULkVmn6-53" target="56HJz9ENn2LGzULkVmn6-6" edge="1">
          <mxGeometry relative="1" as="geometry">
            <mxPoint x="660" y="80" as="sourcePoint" />
            <mxPoint x="820" y="80" as="targetPoint" />
            <Array as="points">
              <mxPoint x="830" y="70" />
            </Array>
          </mxGeometry>
        </mxCell>
        <mxCell id="56HJz9ENn2LGzULkVmn6-200" value="1" style="resizable=0;html=1;whiteSpace=wrap;align=right;verticalAlign=bottom;" parent="56HJz9ENn2LGzULkVmn6-199" connectable="0" vertex="1">
          <mxGeometry x="1" relative="1" as="geometry">
            <mxPoint x="10" y="-10" as="offset" />
          </mxGeometry>
        </mxCell>
        <mxCell id="56HJz9ENn2LGzULkVmn6-208" value="" style="endArrow=none;html=1;rounded=0;entryX=0.5;entryY=1;entryDx=0;entryDy=0;exitX=0.5;exitY=0;exitDx=0;exitDy=0;" parent="1" source="56HJz9ENn2LGzULkVmn6-54" target="56HJz9ENn2LGzULkVmn6-55" edge="1">
          <mxGeometry relative="1" as="geometry">
            <mxPoint x="610" y="660" as="sourcePoint" />
            <mxPoint x="640" y="490" as="targetPoint" />
            <Array as="points">
              <mxPoint x="570" y="450" />
            </Array>
          </mxGeometry>
        </mxCell>
        <mxCell id="56HJz9ENn2LGzULkVmn6-385" value="1" style="edgeLabel;html=1;align=center;verticalAlign=middle;resizable=0;points=[];" parent="56HJz9ENn2LGzULkVmn6-208" vertex="1" connectable="0">
          <mxGeometry x="-0.4143" y="1" relative="1" as="geometry">
            <mxPoint x="21" as="offset" />
          </mxGeometry>
        </mxCell>
        <mxCell id="56HJz9ENn2LGzULkVmn6-209" value="" style="shape=link;html=1;rounded=0;entryX=0;entryY=0.5;entryDx=0;entryDy=0;width=4;" parent="1" target="56HJz9ENn2LGzULkVmn6-55" edge="1">
          <mxGeometry relative="1" as="geometry">
            <mxPoint x="370" y="480" as="sourcePoint" />
            <mxPoint x="510" y="570" as="targetPoint" />
          </mxGeometry>
        </mxCell>
        <mxCell id="56HJz9ENn2LGzULkVmn6-386" value="N" style="edgeLabel;html=1;align=center;verticalAlign=middle;resizable=0;points=[];" parent="56HJz9ENn2LGzULkVmn6-209" vertex="1" connectable="0">
          <mxGeometry x="-0.5536" y="-2" relative="1" as="geometry">
            <mxPoint x="-17" y="-2" as="offset" />
          </mxGeometry>
        </mxCell>
        <mxCell id="56HJz9ENn2LGzULkVmn6-211" value="" style="endArrow=none;html=1;rounded=0;exitX=0.25;exitY=1;exitDx=0;exitDy=0;entryX=1;entryY=0;entryDx=0;entryDy=0;" parent="1" source="56HJz9ENn2LGzULkVmn6-7" target="56HJz9ENn2LGzULkVmn6-47" edge="1">
          <mxGeometry relative="1" as="geometry">
            <mxPoint x="760" y="770" as="sourcePoint" />
            <mxPoint x="920" y="770" as="targetPoint" />
          </mxGeometry>
        </mxCell>
        <mxCell id="56HJz9ENn2LGzULkVmn6-213" value="" style="shape=link;html=1;rounded=0;exitX=1;exitY=0;exitDx=0;exitDy=0;entryX=0;entryY=1;entryDx=0;entryDy=0;" parent="1" source="56HJz9ENn2LGzULkVmn6-29" target="56HJz9ENn2LGzULkVmn6-47" edge="1">
          <mxGeometry relative="1" as="geometry">
            <mxPoint x="560" y="850" as="sourcePoint" />
            <mxPoint x="720" y="850" as="targetPoint" />
          </mxGeometry>
        </mxCell>
        <mxCell id="56HJz9ENn2LGzULkVmn6-215" value="" style="shape=link;html=1;rounded=0;exitX=0.5;exitY=1;exitDx=0;exitDy=0;entryX=0;entryY=0.5;entryDx=0;entryDy=0;" parent="1" source="56HJz9ENn2LGzULkVmn6-60" target="56HJz9ENn2LGzULkVmn6-66" edge="1">
          <mxGeometry relative="1" as="geometry">
            <mxPoint x="70" y="1010" as="sourcePoint" />
            <mxPoint x="230" y="1010" as="targetPoint" />
            <Array as="points">
              <mxPoint x="40" y="990" />
            </Array>
          </mxGeometry>
        </mxCell>
        <mxCell id="56HJz9ENn2LGzULkVmn6-216" value="" style="resizable=0;html=1;whiteSpace=wrap;align=right;verticalAlign=bottom;" parent="56HJz9ENn2LGzULkVmn6-215" connectable="0" vertex="1">
          <mxGeometry x="1" relative="1" as="geometry" />
        </mxCell>
        <mxCell id="56HJz9ENn2LGzULkVmn6-380" value="N" style="edgeLabel;html=1;align=center;verticalAlign=middle;resizable=0;points=[];" parent="56HJz9ENn2LGzULkVmn6-215" vertex="1" connectable="0">
          <mxGeometry x="-0.8053" y="5" relative="1" as="geometry">
            <mxPoint x="15" as="offset" />
          </mxGeometry>
        </mxCell>
        <mxCell id="56HJz9ENn2LGzULkVmn6-217" value="" style="endArrow=none;html=1;rounded=0;exitX=1;exitY=0.5;exitDx=0;exitDy=0;entryX=0.371;entryY=0.971;entryDx=0;entryDy=0;entryPerimeter=0;" parent="1" source="56HJz9ENn2LGzULkVmn6-66" target="56HJz9ENn2LGzULkVmn6-7" edge="1">
          <mxGeometry relative="1" as="geometry">
            <mxPoint x="470" y="1030" as="sourcePoint" />
            <mxPoint x="630" y="1030" as="targetPoint" />
            <Array as="points">
              <mxPoint x="810" y="990" />
            </Array>
          </mxGeometry>
        </mxCell>
        <mxCell id="56HJz9ENn2LGzULkVmn6-218" value="" style="resizable=0;html=1;whiteSpace=wrap;align=right;verticalAlign=bottom;" parent="56HJz9ENn2LGzULkVmn6-217" connectable="0" vertex="1">
          <mxGeometry x="1" relative="1" as="geometry" />
        </mxCell>
        <mxCell id="56HJz9ENn2LGzULkVmn6-378" value="1" style="edgeLabel;html=1;align=center;verticalAlign=middle;resizable=0;points=[];" parent="56HJz9ENn2LGzULkVmn6-217" vertex="1" connectable="0">
          <mxGeometry x="0.9062" y="4" relative="1" as="geometry">
            <mxPoint x="-4" y="-15" as="offset" />
          </mxGeometry>
        </mxCell>
        <mxCell id="56HJz9ENn2LGzULkVmn6-219" value="" style="shape=link;html=1;rounded=0;exitX=0.5;exitY=1;exitDx=0;exitDy=0;entryX=0.085;entryY=1.052;entryDx=0;entryDy=0;entryPerimeter=0;" parent="1" source="56HJz9ENn2LGzULkVmn6-147" target="56HJz9ENn2LGzULkVmn6-11" edge="1">
          <mxGeometry relative="1" as="geometry">
            <mxPoint x="970" y="880" as="sourcePoint" />
            <mxPoint x="1130" y="880" as="targetPoint" />
            <Array as="points">
              <mxPoint x="1040" y="1070" />
              <mxPoint x="-80" y="1070" />
              <mxPoint x="-80" y="750" />
            </Array>
          </mxGeometry>
        </mxCell>
        <mxCell id="56HJz9ENn2LGzULkVmn6-382" value="N" style="edgeLabel;html=1;align=center;verticalAlign=middle;resizable=0;points=[];" parent="56HJz9ENn2LGzULkVmn6-219" vertex="1" connectable="0">
          <mxGeometry x="0.9365" relative="1" as="geometry">
            <mxPoint x="22" y="-17" as="offset" />
          </mxGeometry>
        </mxCell>
        <mxCell id="56HJz9ENn2LGzULkVmn6-221" value="O_id" style="ellipse;whiteSpace=wrap;html=1;align=center;fontStyle=4;" parent="1" vertex="1">
          <mxGeometry x="-130" y="430" width="60" height="30" as="geometry" />
        </mxCell>
        <mxCell id="56HJz9ENn2LGzULkVmn6-223" value="O_Name" style="ellipse;whiteSpace=wrap;html=1;align=center;" parent="1" vertex="1">
          <mxGeometry x="-170" y="470" width="60" height="30" as="geometry" />
        </mxCell>
        <mxCell id="56HJz9ENn2LGzULkVmn6-225" value="O_Add" style="ellipse;whiteSpace=wrap;html=1;align=center;" parent="1" vertex="1">
          <mxGeometry x="-200" y="520" width="70" height="30" as="geometry" />
        </mxCell>
        <mxCell id="56HJz9ENn2LGzULkVmn6-226" value="House_No" style="ellipse;whiteSpace=wrap;html=1;align=center;" parent="1" vertex="1">
          <mxGeometry x="-285" y="440" width="70" height="30" as="geometry" />
        </mxCell>
        <mxCell id="56HJz9ENn2LGzULkVmn6-227" value="Street" style="ellipse;whiteSpace=wrap;html=1;align=center;" parent="1" vertex="1">
          <mxGeometry x="-320" y="475" width="55" height="30" as="geometry" />
        </mxCell>
        <mxCell id="56HJz9ENn2LGzULkVmn6-228" value="City" style="ellipse;whiteSpace=wrap;html=1;align=center;" parent="1" vertex="1">
          <mxGeometry x="-335" y="520" width="50" height="30" as="geometry" />
        </mxCell>
        <mxCell id="56HJz9ENn2LGzULkVmn6-230" value="Postal_Code" style="ellipse;whiteSpace=wrap;html=1;align=center;" parent="1" vertex="1">
          <mxGeometry x="-320" y="565" width="85" height="30" as="geometry" />
        </mxCell>
        <mxCell id="56HJz9ENn2LGzULkVmn6-231" value="" style="endArrow=none;html=1;rounded=0;exitX=1.053;exitY=0.831;exitDx=0;exitDy=0;exitPerimeter=0;entryX=0;entryY=0.25;entryDx=0;entryDy=0;" parent="1" source="56HJz9ENn2LGzULkVmn6-221" target="56HJz9ENn2LGzULkVmn6-11" edge="1">
          <mxGeometry relative="1" as="geometry">
            <mxPoint x="-320" y="650" as="sourcePoint" />
            <mxPoint x="-160" y="650" as="targetPoint" />
          </mxGeometry>
        </mxCell>
        <mxCell id="56HJz9ENn2LGzULkVmn6-233" value="" style="endArrow=none;html=1;rounded=0;entryX=0;entryY=0.5;entryDx=0;entryDy=0;exitX=1;exitY=0.5;exitDx=0;exitDy=0;" parent="1" source="56HJz9ENn2LGzULkVmn6-223" target="56HJz9ENn2LGzULkVmn6-11" edge="1">
          <mxGeometry relative="1" as="geometry">
            <mxPoint x="-160" y="580" as="sourcePoint" />
            <mxPoint y="580" as="targetPoint" />
          </mxGeometry>
        </mxCell>
        <mxCell id="56HJz9ENn2LGzULkVmn6-234" value="" style="endArrow=none;html=1;rounded=0;exitX=1;exitY=0.5;exitDx=0;exitDy=0;entryX=0;entryY=0.75;entryDx=0;entryDy=0;" parent="1" source="56HJz9ENn2LGzULkVmn6-225" target="56HJz9ENn2LGzULkVmn6-11" edge="1">
          <mxGeometry relative="1" as="geometry">
            <mxPoint x="-130" y="640" as="sourcePoint" />
            <mxPoint y="530" as="targetPoint" />
          </mxGeometry>
        </mxCell>
        <mxCell id="56HJz9ENn2LGzULkVmn6-236" value="" style="endArrow=none;html=1;rounded=0;exitX=0.97;exitY=0.929;exitDx=0;exitDy=0;exitPerimeter=0;" parent="1" source="56HJz9ENn2LGzULkVmn6-226" target="56HJz9ENn2LGzULkVmn6-225" edge="1">
          <mxGeometry relative="1" as="geometry">
            <mxPoint x="-390" y="680" as="sourcePoint" />
            <mxPoint x="-230" y="680" as="targetPoint" />
          </mxGeometry>
        </mxCell>
        <mxCell id="56HJz9ENn2LGzULkVmn6-237" value="" style="endArrow=none;html=1;rounded=0;exitX=1;exitY=0.5;exitDx=0;exitDy=0;entryX=0;entryY=0;entryDx=0;entryDy=0;" parent="1" source="56HJz9ENn2LGzULkVmn6-227" target="56HJz9ENn2LGzULkVmn6-225" edge="1">
          <mxGeometry relative="1" as="geometry">
            <mxPoint x="-280" y="630" as="sourcePoint" />
            <mxPoint x="-120" y="630" as="targetPoint" />
          </mxGeometry>
        </mxCell>
        <mxCell id="56HJz9ENn2LGzULkVmn6-238" value="" style="endArrow=none;html=1;rounded=0;exitX=1;exitY=0.5;exitDx=0;exitDy=0;entryX=0;entryY=0.5;entryDx=0;entryDy=0;" parent="1" source="56HJz9ENn2LGzULkVmn6-228" target="56HJz9ENn2LGzULkVmn6-225" edge="1">
          <mxGeometry relative="1" as="geometry">
            <mxPoint x="-280" y="590" as="sourcePoint" />
            <mxPoint x="-120" y="590" as="targetPoint" />
          </mxGeometry>
        </mxCell>
        <mxCell id="56HJz9ENn2LGzULkVmn6-239" value="" style="endArrow=none;html=1;rounded=0;exitX=1;exitY=0;exitDx=0;exitDy=0;entryX=0;entryY=1;entryDx=0;entryDy=0;" parent="1" source="56HJz9ENn2LGzULkVmn6-230" target="56HJz9ENn2LGzULkVmn6-225" edge="1">
          <mxGeometry relative="1" as="geometry">
            <mxPoint x="-250" y="600" as="sourcePoint" />
            <mxPoint x="-90" y="600" as="targetPoint" />
          </mxGeometry>
        </mxCell>
        <mxCell id="56HJz9ENn2LGzULkVmn6-241" value="O_Phone" style="ellipse;shape=doubleEllipse;margin=3;whiteSpace=wrap;html=1;align=center;" parent="1" vertex="1">
          <mxGeometry x="-200" y="565" width="80" height="35" as="geometry" />
        </mxCell>
        <mxCell id="56HJz9ENn2LGzULkVmn6-242" value="" style="endArrow=none;html=1;rounded=0;entryX=0;entryY=0.75;entryDx=0;entryDy=0;exitX=1;exitY=0.5;exitDx=0;exitDy=0;" parent="1" source="56HJz9ENn2LGzULkVmn6-241" target="56HJz9ENn2LGzULkVmn6-11" edge="1">
          <mxGeometry relative="1" as="geometry">
            <mxPoint x="-290" y="730" as="sourcePoint" />
            <mxPoint x="-130" y="730" as="targetPoint" />
          </mxGeometry>
        </mxCell>
        <mxCell id="56HJz9ENn2LGzULkVmn6-244" value="O_Email" style="ellipse;shape=doubleEllipse;margin=3;whiteSpace=wrap;html=1;align=center;" parent="1" vertex="1">
          <mxGeometry x="-180" y="610" width="70" height="30" as="geometry" />
        </mxCell>
        <mxCell id="56HJz9ENn2LGzULkVmn6-245" value="" style="endArrow=none;html=1;rounded=0;entryX=0;entryY=1;entryDx=0;entryDy=0;exitX=1;exitY=0.5;exitDx=0;exitDy=0;" parent="1" source="56HJz9ENn2LGzULkVmn6-244" target="56HJz9ENn2LGzULkVmn6-11" edge="1">
          <mxGeometry relative="1" as="geometry">
            <mxPoint x="-310" y="760" as="sourcePoint" />
            <mxPoint x="-150" y="760" as="targetPoint" />
          </mxGeometry>
        </mxCell>
        <mxCell id="56HJz9ENn2LGzULkVmn6-246" value="S_Name" style="ellipse;whiteSpace=wrap;html=1;align=center;" parent="1" vertex="1">
          <mxGeometry x="160" y="790" width="70" height="40" as="geometry" />
        </mxCell>
        <mxCell id="56HJz9ENn2LGzULkVmn6-247" value="Sup_Id" style="ellipse;whiteSpace=wrap;html=1;align=center;fontStyle=4;" parent="1" vertex="1">
          <mxGeometry x="100" y="760" width="80" height="30" as="geometry" />
        </mxCell>
        <mxCell id="56HJz9ENn2LGzULkVmn6-249" value="S_Phone" style="ellipse;shape=doubleEllipse;margin=3;whiteSpace=wrap;html=1;align=center;" parent="1" vertex="1">
          <mxGeometry x="190" y="840" width="80" height="40" as="geometry" />
        </mxCell>
        <mxCell id="56HJz9ENn2LGzULkVmn6-250" value="S_Email" style="ellipse;shape=doubleEllipse;margin=3;whiteSpace=wrap;html=1;align=center;" parent="1" vertex="1">
          <mxGeometry x="168" y="890" width="82" height="40" as="geometry" />
        </mxCell>
        <mxCell id="56HJz9ENn2LGzULkVmn6-251" value="" style="endArrow=none;html=1;rounded=0;exitX=0.75;exitY=0;exitDx=0;exitDy=0;entryX=0.061;entryY=0.768;entryDx=0;entryDy=0;entryPerimeter=0;" parent="1" source="56HJz9ENn2LGzULkVmn6-60" target="56HJz9ENn2LGzULkVmn6-247" edge="1">
          <mxGeometry relative="1" as="geometry">
            <mxPoint x="-300" y="910" as="sourcePoint" />
            <mxPoint x="-140" y="910" as="targetPoint" />
          </mxGeometry>
        </mxCell>
        <mxCell id="56HJz9ENn2LGzULkVmn6-252" value="" style="endArrow=none;html=1;rounded=0;exitX=0;exitY=0.5;exitDx=0;exitDy=0;entryX=1;entryY=0;entryDx=0;entryDy=0;" parent="1" source="56HJz9ENn2LGzULkVmn6-246" target="56HJz9ENn2LGzULkVmn6-60" edge="1">
          <mxGeometry relative="1" as="geometry">
            <mxPoint x="-220" y="1000" as="sourcePoint" />
            <mxPoint x="-60" y="1000" as="targetPoint" />
          </mxGeometry>
        </mxCell>
        <mxCell id="56HJz9ENn2LGzULkVmn6-253" value="" style="endArrow=none;html=1;rounded=0;exitX=1;exitY=0.5;exitDx=0;exitDy=0;entryX=0;entryY=0.5;entryDx=0;entryDy=0;" parent="1" source="56HJz9ENn2LGzULkVmn6-60" target="56HJz9ENn2LGzULkVmn6-249" edge="1">
          <mxGeometry relative="1" as="geometry">
            <mxPoint x="150" y="900" as="sourcePoint" />
            <mxPoint x="310" y="900" as="targetPoint" />
          </mxGeometry>
        </mxCell>
        <mxCell id="56HJz9ENn2LGzULkVmn6-254" value="" style="endArrow=none;html=1;rounded=0;entryX=0;entryY=0.5;entryDx=0;entryDy=0;exitX=1;exitY=1;exitDx=0;exitDy=0;" parent="1" source="56HJz9ENn2LGzULkVmn6-60" target="56HJz9ENn2LGzULkVmn6-250" edge="1">
          <mxGeometry relative="1" as="geometry">
            <mxPoint x="-60" y="930" as="sourcePoint" />
            <mxPoint x="100" y="930" as="targetPoint" />
          </mxGeometry>
        </mxCell>
        <mxCell id="56HJz9ENn2LGzULkVmn6-255" value="S_Address" style="ellipse;whiteSpace=wrap;html=1;align=center;" parent="1" vertex="1">
          <mxGeometry x="-60" y="960" width="80" height="30" as="geometry" />
        </mxCell>
        <mxCell id="56HJz9ENn2LGzULkVmn6-256" value="" style="endArrow=none;html=1;rounded=0;entryX=0.25;entryY=1;entryDx=0;entryDy=0;exitX=0.5;exitY=0;exitDx=0;exitDy=0;" parent="1" source="56HJz9ENn2LGzULkVmn6-255" target="56HJz9ENn2LGzULkVmn6-60" edge="1">
          <mxGeometry relative="1" as="geometry">
            <mxPoint x="-200" y="990" as="sourcePoint" />
            <mxPoint x="-40" y="990" as="targetPoint" />
          </mxGeometry>
        </mxCell>
        <mxCell id="56HJz9ENn2LGzULkVmn6-258" value="P_Id" style="ellipse;whiteSpace=wrap;html=1;align=center;fontStyle=4;" parent="1" vertex="1">
          <mxGeometry x="530" y="770" width="70" height="30" as="geometry" />
        </mxCell>
        <mxCell id="56HJz9ENn2LGzULkVmn6-259" value="P_Type" style="ellipse;whiteSpace=wrap;html=1;align=center;" parent="1" vertex="1">
          <mxGeometry x="555" y="820" width="70" height="40" as="geometry" />
        </mxCell>
        <mxCell id="56HJz9ENn2LGzULkVmn6-260" value="Date" style="ellipse;whiteSpace=wrap;html=1;align=center;" parent="1" vertex="1">
          <mxGeometry x="535" y="880" width="70" height="30" as="geometry" />
        </mxCell>
        <mxCell id="56HJz9ENn2LGzULkVmn6-262" value="Amount" style="ellipse;whiteSpace=wrap;html=1;align=center;" parent="1" vertex="1">
          <mxGeometry x="310" y="860" width="75" height="40" as="geometry" />
        </mxCell>
        <mxCell id="56HJz9ENn2LGzULkVmn6-264" value="P_Method" style="ellipse;whiteSpace=wrap;html=1;align=center;" parent="1" vertex="1">
          <mxGeometry x="350" y="910" width="90" height="40" as="geometry" />
        </mxCell>
        <mxCell id="56HJz9ENn2LGzULkVmn6-265" value="Invoice_No" style="ellipse;whiteSpace=wrap;html=1;align=center;" parent="1" vertex="1">
          <mxGeometry x="460" y="910" width="75" height="40" as="geometry" />
        </mxCell>
        <mxCell id="56HJz9ENn2LGzULkVmn6-266" value="" style="endArrow=none;html=1;rounded=0;exitX=1;exitY=0;exitDx=0;exitDy=0;entryX=0;entryY=1;entryDx=0;entryDy=0;" parent="1" source="56HJz9ENn2LGzULkVmn6-262" target="56HJz9ENn2LGzULkVmn6-29" edge="1">
          <mxGeometry relative="1" as="geometry">
            <mxPoint x="420" y="880" as="sourcePoint" />
            <mxPoint x="580" y="880" as="targetPoint" />
          </mxGeometry>
        </mxCell>
        <mxCell id="56HJz9ENn2LGzULkVmn6-267" value="" style="endArrow=none;html=1;rounded=0;exitX=0.5;exitY=0;exitDx=0;exitDy=0;entryX=0.25;entryY=1;entryDx=0;entryDy=0;" parent="1" source="56HJz9ENn2LGzULkVmn6-264" target="56HJz9ENn2LGzULkVmn6-29" edge="1">
          <mxGeometry relative="1" as="geometry">
            <mxPoint x="420" y="900" as="sourcePoint" />
            <mxPoint x="580" y="900" as="targetPoint" />
          </mxGeometry>
        </mxCell>
        <mxCell id="56HJz9ENn2LGzULkVmn6-268" value="" style="endArrow=none;html=1;rounded=0;exitX=0.5;exitY=1;exitDx=0;exitDy=0;entryX=0.256;entryY=-0.079;entryDx=0;entryDy=0;entryPerimeter=0;" parent="1" source="56HJz9ENn2LGzULkVmn6-29" target="56HJz9ENn2LGzULkVmn6-265" edge="1">
          <mxGeometry relative="1" as="geometry">
            <mxPoint x="450" y="880" as="sourcePoint" />
            <mxPoint x="610" y="880" as="targetPoint" />
          </mxGeometry>
        </mxCell>
        <mxCell id="56HJz9ENn2LGzULkVmn6-269" value="" style="endArrow=none;html=1;rounded=0;exitX=0.75;exitY=1;exitDx=0;exitDy=0;entryX=0;entryY=0;entryDx=0;entryDy=0;" parent="1" source="56HJz9ENn2LGzULkVmn6-29" target="56HJz9ENn2LGzULkVmn6-260" edge="1">
          <mxGeometry relative="1" as="geometry">
            <mxPoint x="500" y="860" as="sourcePoint" />
            <mxPoint x="660" y="860" as="targetPoint" />
          </mxGeometry>
        </mxCell>
        <mxCell id="56HJz9ENn2LGzULkVmn6-270" value="" style="endArrow=none;html=1;rounded=0;exitX=1;exitY=0.75;exitDx=0;exitDy=0;entryX=0;entryY=0.5;entryDx=0;entryDy=0;" parent="1" source="56HJz9ENn2LGzULkVmn6-29" target="56HJz9ENn2LGzULkVmn6-259" edge="1">
          <mxGeometry relative="1" as="geometry">
            <mxPoint x="630" y="860" as="sourcePoint" />
            <mxPoint x="790" y="860" as="targetPoint" />
          </mxGeometry>
        </mxCell>
        <mxCell id="56HJz9ENn2LGzULkVmn6-271" value="" style="endArrow=none;html=1;rounded=0;exitX=1;exitY=0.5;exitDx=0;exitDy=0;entryX=0;entryY=0.5;entryDx=0;entryDy=0;" parent="1" source="56HJz9ENn2LGzULkVmn6-29" target="56HJz9ENn2LGzULkVmn6-258" edge="1">
          <mxGeometry relative="1" as="geometry">
            <mxPoint x="510" y="800" as="sourcePoint" />
            <mxPoint x="670" y="800" as="targetPoint" />
          </mxGeometry>
        </mxCell>
        <mxCell id="56HJz9ENn2LGzULkVmn6-274" value="S_Id" style="ellipse;whiteSpace=wrap;html=1;align=center;fontStyle=4;" parent="1" vertex="1">
          <mxGeometry x="210" y="380" width="60" height="40" as="geometry" />
        </mxCell>
        <mxCell id="56HJz9ENn2LGzULkVmn6-275" value="S_Name" style="ellipse;whiteSpace=wrap;html=1;align=center;" parent="1" vertex="1">
          <mxGeometry x="165" y="415" width="60" height="35" as="geometry" />
        </mxCell>
        <mxCell id="56HJz9ENn2LGzULkVmn6-276" value="S_Description" style="ellipse;whiteSpace=wrap;html=1;align=center;" parent="1" vertex="1">
          <mxGeometry x="149" y="457.5" width="81" height="45" as="geometry" />
        </mxCell>
        <mxCell id="56HJz9ENn2LGzULkVmn6-277" value="Price" style="ellipse;whiteSpace=wrap;html=1;align=center;" parent="1" vertex="1">
          <mxGeometry x="164" y="510" width="61" height="30" as="geometry" />
        </mxCell>
        <mxCell id="56HJz9ENn2LGzULkVmn6-278" value="Duration" style="ellipse;whiteSpace=wrap;html=1;align=center;" parent="1" vertex="1">
          <mxGeometry x="180" y="550" width="80" height="30" as="geometry" />
        </mxCell>
        <mxCell id="56HJz9ENn2LGzULkVmn6-279" value="" style="endArrow=none;html=1;rounded=0;exitX=0.992;exitY=0.804;exitDx=0;exitDy=0;exitPerimeter=0;entryX=0.345;entryY=-0.05;entryDx=0;entryDy=0;entryPerimeter=0;" parent="1" source="56HJz9ENn2LGzULkVmn6-274" target="56HJz9ENn2LGzULkVmn6-9" edge="1">
          <mxGeometry relative="1" as="geometry">
            <mxPoint x="280" y="430" as="sourcePoint" />
            <mxPoint x="440" y="430" as="targetPoint" />
          </mxGeometry>
        </mxCell>
        <mxCell id="56HJz9ENn2LGzULkVmn6-280" value="" style="endArrow=none;html=1;rounded=0;exitX=1;exitY=0.5;exitDx=0;exitDy=0;entryX=0;entryY=0;entryDx=0;entryDy=0;" parent="1" source="56HJz9ENn2LGzULkVmn6-275" target="56HJz9ENn2LGzULkVmn6-9" edge="1">
          <mxGeometry relative="1" as="geometry">
            <mxPoint x="340" y="560" as="sourcePoint" />
            <mxPoint x="500" y="560" as="targetPoint" />
          </mxGeometry>
        </mxCell>
        <mxCell id="56HJz9ENn2LGzULkVmn6-281" value="" style="endArrow=none;html=1;rounded=0;exitX=1;exitY=0.5;exitDx=0;exitDy=0;entryX=0;entryY=0.5;entryDx=0;entryDy=0;" parent="1" source="56HJz9ENn2LGzULkVmn6-276" target="56HJz9ENn2LGzULkVmn6-9" edge="1">
          <mxGeometry relative="1" as="geometry">
            <mxPoint x="350" y="600" as="sourcePoint" />
            <mxPoint x="510" y="600" as="targetPoint" />
          </mxGeometry>
        </mxCell>
        <mxCell id="56HJz9ENn2LGzULkVmn6-282" value="" style="endArrow=none;html=1;rounded=0;exitX=1;exitY=0.5;exitDx=0;exitDy=0;entryX=0;entryY=0.75;entryDx=0;entryDy=0;" parent="1" source="56HJz9ENn2LGzULkVmn6-277" target="56HJz9ENn2LGzULkVmn6-9" edge="1">
          <mxGeometry relative="1" as="geometry">
            <mxPoint x="340" y="620" as="sourcePoint" />
            <mxPoint x="500" y="620" as="targetPoint" />
          </mxGeometry>
        </mxCell>
        <mxCell id="56HJz9ENn2LGzULkVmn6-283" value="" style="endArrow=none;html=1;rounded=0;exitX=1;exitY=0.5;exitDx=0;exitDy=0;entryX=0.2;entryY=1;entryDx=0;entryDy=0;entryPerimeter=0;" parent="1" source="56HJz9ENn2LGzULkVmn6-278" target="56HJz9ENn2LGzULkVmn6-9" edge="1">
          <mxGeometry relative="1" as="geometry">
            <mxPoint x="290" y="610" as="sourcePoint" />
            <mxPoint x="450" y="610" as="targetPoint" />
          </mxGeometry>
        </mxCell>
        <mxCell id="56HJz9ENn2LGzULkVmn6-284" value="M_Id" style="ellipse;whiteSpace=wrap;html=1;align=center;fontStyle=4;" parent="1" vertex="1">
          <mxGeometry x="1120" y="360" width="70" height="40" as="geometry" />
        </mxCell>
        <mxCell id="56HJz9ENn2LGzULkVmn6-285" value="M_Name" style="ellipse;whiteSpace=wrap;html=1;align=center;" parent="1" vertex="1">
          <mxGeometry x="1160" y="415" width="80" height="40" as="geometry" />
        </mxCell>
        <mxCell id="56HJz9ENn2LGzULkVmn6-286" value="Sur_Name" style="ellipse;whiteSpace=wrap;html=1;align=center;" parent="1" vertex="1">
          <mxGeometry x="1270" y="370" width="90" height="40" as="geometry" />
        </mxCell>
        <mxCell id="56HJz9ENn2LGzULkVmn6-287" value="First_Name" style="ellipse;whiteSpace=wrap;html=1;align=center;" parent="1" vertex="1">
          <mxGeometry x="1290" y="420" width="80" height="45" as="geometry" />
        </mxCell>
        <mxCell id="56HJz9ENn2LGzULkVmn6-288" value="Last_Name" style="ellipse;whiteSpace=wrap;html=1;align=center;" parent="1" vertex="1">
          <mxGeometry x="1295" y="475" width="70" height="40" as="geometry" />
        </mxCell>
        <mxCell id="56HJz9ENn2LGzULkVmn6-289" value="" style="endArrow=none;html=1;rounded=0;exitX=1;exitY=0.25;exitDx=0;exitDy=0;entryX=0;entryY=0.5;entryDx=0;entryDy=0;" parent="1" source="56HJz9ENn2LGzULkVmn6-7" target="56HJz9ENn2LGzULkVmn6-284" edge="1">
          <mxGeometry relative="1" as="geometry">
            <mxPoint x="1160" y="580" as="sourcePoint" />
            <mxPoint x="1320" y="580" as="targetPoint" />
          </mxGeometry>
        </mxCell>
        <mxCell id="56HJz9ENn2LGzULkVmn6-290" value="" style="endArrow=none;html=1;rounded=0;exitX=1;exitY=0.5;exitDx=0;exitDy=0;entryX=0;entryY=0.5;entryDx=0;entryDy=0;" parent="1" source="56HJz9ENn2LGzULkVmn6-7" target="56HJz9ENn2LGzULkVmn6-285" edge="1">
          <mxGeometry relative="1" as="geometry">
            <mxPoint x="1210" y="540" as="sourcePoint" />
            <mxPoint x="1370" y="540" as="targetPoint" />
          </mxGeometry>
        </mxCell>
        <mxCell id="56HJz9ENn2LGzULkVmn6-291" value="" style="endArrow=none;html=1;rounded=0;entryX=0;entryY=0.5;entryDx=0;entryDy=0;" parent="1" source="56HJz9ENn2LGzULkVmn6-285" target="56HJz9ENn2LGzULkVmn6-286" edge="1">
          <mxGeometry relative="1" as="geometry">
            <mxPoint x="1160" y="520" as="sourcePoint" />
            <mxPoint x="1320" y="520" as="targetPoint" />
          </mxGeometry>
        </mxCell>
        <mxCell id="56HJz9ENn2LGzULkVmn6-292" value="" style="endArrow=none;html=1;rounded=0;exitX=1;exitY=0.5;exitDx=0;exitDy=0;entryX=-0.04;entryY=0.356;entryDx=0;entryDy=0;entryPerimeter=0;" parent="1" source="56HJz9ENn2LGzULkVmn6-285" target="56HJz9ENn2LGzULkVmn6-287" edge="1">
          <mxGeometry relative="1" as="geometry">
            <mxPoint x="1150" y="590" as="sourcePoint" />
            <mxPoint x="1310" y="590" as="targetPoint" />
          </mxGeometry>
        </mxCell>
        <mxCell id="56HJz9ENn2LGzULkVmn6-293" value="" style="endArrow=none;html=1;rounded=0;exitX=0.96;exitY=0.829;exitDx=0;exitDy=0;exitPerimeter=0;entryX=0.056;entryY=0.32;entryDx=0;entryDy=0;entryPerimeter=0;" parent="1" source="56HJz9ENn2LGzULkVmn6-285" target="56HJz9ENn2LGzULkVmn6-288" edge="1">
          <mxGeometry relative="1" as="geometry">
            <mxPoint x="1370" y="630" as="sourcePoint" />
            <mxPoint x="1530" y="630" as="targetPoint" />
          </mxGeometry>
        </mxCell>
        <mxCell id="56HJz9ENn2LGzULkVmn6-294" value="DOB" style="ellipse;whiteSpace=wrap;html=1;align=center;" parent="1" vertex="1">
          <mxGeometry x="1180" y="460" width="60" height="30" as="geometry" />
        </mxCell>
        <mxCell id="56HJz9ENn2LGzULkVmn6-295" value="Email" style="ellipse;whiteSpace=wrap;html=1;align=center;" parent="1" vertex="1">
          <mxGeometry x="1180" y="555" width="60" height="40" as="geometry" />
        </mxCell>
        <mxCell id="56HJz9ENn2LGzULkVmn6-296" value="Phone" style="ellipse;shape=doubleEllipse;margin=3;whiteSpace=wrap;html=1;align=center;" parent="1" vertex="1">
          <mxGeometry x="1190" y="502.5" width="70" height="45" as="geometry" />
        </mxCell>
        <mxCell id="56HJz9ENn2LGzULkVmn6-297" value="Address" style="ellipse;whiteSpace=wrap;html=1;align=center;" parent="1" vertex="1">
          <mxGeometry x="1120" y="595" width="70" height="35" as="geometry" />
        </mxCell>
        <mxCell id="56HJz9ENn2LGzULkVmn6-298" value="" style="endArrow=none;html=1;rounded=0;exitX=1;exitY=0.75;exitDx=0;exitDy=0;entryX=0;entryY=0.5;entryDx=0;entryDy=0;" parent="1" source="56HJz9ENn2LGzULkVmn6-7" target="56HJz9ENn2LGzULkVmn6-294" edge="1">
          <mxGeometry relative="1" as="geometry">
            <mxPoint x="1120" y="560" as="sourcePoint" />
            <mxPoint x="1280" y="560" as="targetPoint" />
          </mxGeometry>
        </mxCell>
        <mxCell id="56HJz9ENn2LGzULkVmn6-299" value="" style="endArrow=none;html=1;rounded=0;exitX=1;exitY=1;exitDx=0;exitDy=0;entryX=0.05;entryY=0.351;entryDx=0;entryDy=0;entryPerimeter=0;" parent="1" source="56HJz9ENn2LGzULkVmn6-7" target="56HJz9ENn2LGzULkVmn6-296" edge="1">
          <mxGeometry relative="1" as="geometry">
            <mxPoint x="1120" y="530" as="sourcePoint" />
            <mxPoint x="1280" y="530" as="targetPoint" />
          </mxGeometry>
        </mxCell>
        <mxCell id="56HJz9ENn2LGzULkVmn6-300" value="" style="endArrow=none;html=1;rounded=0;exitX=0.925;exitY=1.005;exitDx=0;exitDy=0;exitPerimeter=0;entryX=0;entryY=0;entryDx=0;entryDy=0;" parent="1" source="56HJz9ENn2LGzULkVmn6-7" target="56HJz9ENn2LGzULkVmn6-295" edge="1">
          <mxGeometry relative="1" as="geometry">
            <mxPoint x="1060" y="570" as="sourcePoint" />
            <mxPoint x="1220" y="570" as="targetPoint" />
          </mxGeometry>
        </mxCell>
        <mxCell id="56HJz9ENn2LGzULkVmn6-301" value="" style="endArrow=none;html=1;rounded=0;exitX=0.75;exitY=1;exitDx=0;exitDy=0;entryX=0;entryY=0;entryDx=0;entryDy=0;" parent="1" source="56HJz9ENn2LGzULkVmn6-7" target="56HJz9ENn2LGzULkVmn6-297" edge="1">
          <mxGeometry relative="1" as="geometry">
            <mxPoint x="1140" y="550" as="sourcePoint" />
            <mxPoint x="1300" y="550" as="targetPoint" />
          </mxGeometry>
        </mxCell>
        <mxCell id="56HJz9ENn2LGzULkVmn6-302" value="Emp_Id" style="ellipse;whiteSpace=wrap;html=1;align=center;fontStyle=4;" parent="1" vertex="1">
          <mxGeometry x="850" y="20" width="75" height="40" as="geometry" />
        </mxCell>
        <mxCell id="56HJz9ENn2LGzULkVmn6-303" value="Emp_Name" style="ellipse;whiteSpace=wrap;html=1;align=center;" parent="1" vertex="1">
          <mxGeometry x="670" y="130" width="80" height="40" as="geometry" />
        </mxCell>
        <mxCell id="56HJz9ENn2LGzULkVmn6-304" value="DOB" style="ellipse;whiteSpace=wrap;html=1;align=center;" parent="1" vertex="1">
          <mxGeometry x="670" y="230" width="70" height="40" as="geometry" />
        </mxCell>
        <mxCell id="56HJz9ENn2LGzULkVmn6-306" value="Age" style="ellipse;whiteSpace=wrap;html=1;align=center;dashed=1;" parent="1" vertex="1">
          <mxGeometry x="940" y="170" width="65" height="40" as="geometry" />
        </mxCell>
        <mxCell id="56HJz9ENn2LGzULkVmn6-307" value="Emp_Phone" style="ellipse;whiteSpace=wrap;html=1;align=center;" parent="1" vertex="1">
          <mxGeometry x="680" y="280" width="110" height="40" as="geometry" />
        </mxCell>
        <mxCell id="56HJz9ENn2LGzULkVmn6-309" value="Address" style="ellipse;whiteSpace=wrap;html=1;align=center;" parent="1" vertex="1">
          <mxGeometry x="925" y="50" width="80" height="40" as="geometry" />
        </mxCell>
        <mxCell id="56HJz9ENn2LGzULkVmn6-310" value="Email" style="ellipse;whiteSpace=wrap;html=1;align=center;" parent="1" vertex="1">
          <mxGeometry x="935" y="110" width="70" height="40" as="geometry" />
        </mxCell>
        <mxCell id="56HJz9ENn2LGzULkVmn6-311" value="" style="endArrow=none;html=1;rounded=0;exitX=1;exitY=0.5;exitDx=0;exitDy=0;entryX=0.25;entryY=0;entryDx=0;entryDy=0;" parent="1" source="56HJz9ENn2LGzULkVmn6-303" target="56HJz9ENn2LGzULkVmn6-6" edge="1">
          <mxGeometry relative="1" as="geometry">
            <mxPoint x="860" y="200" as="sourcePoint" />
            <mxPoint x="1020" y="200" as="targetPoint" />
          </mxGeometry>
        </mxCell>
        <mxCell id="56HJz9ENn2LGzULkVmn6-312" value="" style="endArrow=none;html=1;rounded=0;exitX=1;exitY=0.5;exitDx=0;exitDy=0;entryX=0;entryY=0.5;entryDx=0;entryDy=0;" parent="1" source="56HJz9ENn2LGzULkVmn6-304" target="56HJz9ENn2LGzULkVmn6-6" edge="1">
          <mxGeometry relative="1" as="geometry">
            <mxPoint x="860" y="200" as="sourcePoint" />
            <mxPoint x="1020" y="200" as="targetPoint" />
          </mxGeometry>
        </mxCell>
        <mxCell id="56HJz9ENn2LGzULkVmn6-313" value="" style="endArrow=none;html=1;rounded=0;exitX=1;exitY=0;exitDx=0;exitDy=0;entryX=0.138;entryY=1.035;entryDx=0;entryDy=0;entryPerimeter=0;" parent="1" source="56HJz9ENn2LGzULkVmn6-307" target="56HJz9ENn2LGzULkVmn6-6" edge="1">
          <mxGeometry relative="1" as="geometry">
            <mxPoint x="730" y="280" as="sourcePoint" />
            <mxPoint x="890" y="280" as="targetPoint" />
          </mxGeometry>
        </mxCell>
        <mxCell id="56HJz9ENn2LGzULkVmn6-314" value="" style="endArrow=none;html=1;rounded=0;exitX=0.309;exitY=0.991;exitDx=0;exitDy=0;exitPerimeter=0;entryX=0.75;entryY=0;entryDx=0;entryDy=0;" parent="1" source="56HJz9ENn2LGzULkVmn6-302" target="56HJz9ENn2LGzULkVmn6-6" edge="1">
          <mxGeometry relative="1" as="geometry">
            <mxPoint x="890" y="160" as="sourcePoint" />
            <mxPoint x="1050" y="160" as="targetPoint" />
          </mxGeometry>
        </mxCell>
        <mxCell id="56HJz9ENn2LGzULkVmn6-315" value="" style="endArrow=none;html=1;rounded=0;exitX=0;exitY=0.5;exitDx=0;exitDy=0;entryX=0.867;entryY=-0.082;entryDx=0;entryDy=0;entryPerimeter=0;" parent="1" source="56HJz9ENn2LGzULkVmn6-309" target="56HJz9ENn2LGzULkVmn6-6" edge="1">
          <mxGeometry relative="1" as="geometry">
            <mxPoint x="870" y="250" as="sourcePoint" />
            <mxPoint x="1030" y="250" as="targetPoint" />
          </mxGeometry>
        </mxCell>
        <mxCell id="56HJz9ENn2LGzULkVmn6-316" value="" style="endArrow=none;html=1;rounded=0;exitX=0.008;exitY=0.741;exitDx=0;exitDy=0;exitPerimeter=0;entryX=1;entryY=0.25;entryDx=0;entryDy=0;" parent="1" source="56HJz9ENn2LGzULkVmn6-310" target="56HJz9ENn2LGzULkVmn6-6" edge="1">
          <mxGeometry relative="1" as="geometry">
            <mxPoint x="680" y="250" as="sourcePoint" />
            <mxPoint x="840" y="250" as="targetPoint" />
          </mxGeometry>
        </mxCell>
        <mxCell id="56HJz9ENn2LGzULkVmn6-317" value="" style="endArrow=none;html=1;rounded=0;entryX=1;entryY=0.75;entryDx=0;entryDy=0;exitX=0;exitY=0.5;exitDx=0;exitDy=0;" parent="1" source="56HJz9ENn2LGzULkVmn6-306" target="56HJz9ENn2LGzULkVmn6-6" edge="1">
          <mxGeometry relative="1" as="geometry">
            <mxPoint x="820" y="270" as="sourcePoint" />
            <mxPoint x="820" y="270" as="targetPoint" />
          </mxGeometry>
        </mxCell>
        <mxCell id="56HJz9ENn2LGzULkVmn6-318" value="First_name" style="ellipse;whiteSpace=wrap;html=1;align=center;" parent="1" vertex="1">
          <mxGeometry x="535" y="150" width="80" height="40" as="geometry" />
        </mxCell>
        <mxCell id="56HJz9ENn2LGzULkVmn6-319" value="Last_Name" style="ellipse;whiteSpace=wrap;html=1;align=center;" parent="1" vertex="1">
          <mxGeometry x="570" y="200" width="85" height="40" as="geometry" />
        </mxCell>
        <mxCell id="56HJz9ENn2LGzULkVmn6-321" value="" style="endArrow=none;html=1;rounded=0;exitX=0;exitY=0.5;exitDx=0;exitDy=0;" parent="1" source="56HJz9ENn2LGzULkVmn6-303" target="56HJz9ENn2LGzULkVmn6-318" edge="1">
          <mxGeometry relative="1" as="geometry">
            <mxPoint x="480" y="220" as="sourcePoint" />
            <mxPoint x="640" y="220" as="targetPoint" />
          </mxGeometry>
        </mxCell>
        <mxCell id="56HJz9ENn2LGzULkVmn6-322" value="" style="endArrow=none;html=1;rounded=0;exitX=0;exitY=1;exitDx=0;exitDy=0;entryX=0.989;entryY=0.256;entryDx=0;entryDy=0;entryPerimeter=0;" parent="1" source="56HJz9ENn2LGzULkVmn6-303" target="56HJz9ENn2LGzULkVmn6-319" edge="1">
          <mxGeometry relative="1" as="geometry">
            <mxPoint x="500" y="230" as="sourcePoint" />
            <mxPoint x="660" y="230" as="targetPoint" />
          </mxGeometry>
        </mxCell>
        <mxCell id="56HJz9ENn2LGzULkVmn6-323" value="Marketer_Id" style="ellipse;whiteSpace=wrap;html=1;align=center;fontStyle=4;" parent="1" vertex="1">
          <mxGeometry x="410" y="520" width="100" height="40" as="geometry" />
        </mxCell>
        <mxCell id="56HJz9ENn2LGzULkVmn6-324" value="M_name" style="ellipse;whiteSpace=wrap;html=1;align=center;" parent="1" vertex="1">
          <mxGeometry x="447.5" y="570" width="100" height="40" as="geometry" />
        </mxCell>
        <mxCell id="56HJz9ENn2LGzULkVmn6-325" value="DOB" style="ellipse;whiteSpace=wrap;html=1;align=center;" parent="1" vertex="1">
          <mxGeometry x="530" y="610" width="100" height="40" as="geometry" />
        </mxCell>
        <mxCell id="56HJz9ENn2LGzULkVmn6-326" value="Phone_No" style="ellipse;whiteSpace=wrap;html=1;align=center;" parent="1" vertex="1">
          <mxGeometry x="640" y="590" width="100" height="40" as="geometry" />
        </mxCell>
        <mxCell id="56HJz9ENn2LGzULkVmn6-327" value="Email" style="ellipse;whiteSpace=wrap;html=1;align=center;" parent="1" vertex="1">
          <mxGeometry x="680" y="540" width="100" height="40" as="geometry" />
        </mxCell>
        <mxCell id="56HJz9ENn2LGzULkVmn6-328" value="" style="endArrow=none;html=1;rounded=0;exitX=1;exitY=0.5;exitDx=0;exitDy=0;entryX=0;entryY=0.75;entryDx=0;entryDy=0;" parent="1" source="56HJz9ENn2LGzULkVmn6-323" target="56HJz9ENn2LGzULkVmn6-54" edge="1">
          <mxGeometry relative="1" as="geometry">
            <mxPoint x="510" y="560" as="sourcePoint" />
            <mxPoint x="670" y="560" as="targetPoint" />
          </mxGeometry>
        </mxCell>
        <mxCell id="56HJz9ENn2LGzULkVmn6-329" value="" style="endArrow=none;html=1;rounded=0;exitX=1;exitY=0;exitDx=0;exitDy=0;entryX=0.25;entryY=1;entryDx=0;entryDy=0;" parent="1" source="56HJz9ENn2LGzULkVmn6-324" target="56HJz9ENn2LGzULkVmn6-54" edge="1">
          <mxGeometry relative="1" as="geometry">
            <mxPoint x="550" y="560" as="sourcePoint" />
            <mxPoint x="710" y="560" as="targetPoint" />
          </mxGeometry>
        </mxCell>
        <mxCell id="56HJz9ENn2LGzULkVmn6-330" value="" style="endArrow=none;html=1;rounded=0;exitX=0.57;exitY=-0.1;exitDx=0;exitDy=0;exitPerimeter=0;entryX=0.5;entryY=1;entryDx=0;entryDy=0;" parent="1" source="56HJz9ENn2LGzULkVmn6-325" target="56HJz9ENn2LGzULkVmn6-54" edge="1">
          <mxGeometry relative="1" as="geometry">
            <mxPoint x="580" y="570" as="sourcePoint" />
            <mxPoint x="740" y="570" as="targetPoint" />
          </mxGeometry>
        </mxCell>
        <mxCell id="56HJz9ENn2LGzULkVmn6-331" value="" style="endArrow=none;html=1;rounded=0;exitX=0.75;exitY=1;exitDx=0;exitDy=0;entryX=0;entryY=0;entryDx=0;entryDy=0;" parent="1" source="56HJz9ENn2LGzULkVmn6-54" target="56HJz9ENn2LGzULkVmn6-326" edge="1">
          <mxGeometry relative="1" as="geometry">
            <mxPoint x="620" y="560" as="sourcePoint" />
            <mxPoint x="780" y="560" as="targetPoint" />
          </mxGeometry>
        </mxCell>
        <mxCell id="56HJz9ENn2LGzULkVmn6-332" value="" style="endArrow=none;html=1;rounded=0;entryX=0;entryY=0;entryDx=0;entryDy=0;exitX=1;exitY=1;exitDx=0;exitDy=0;" parent="1" source="56HJz9ENn2LGzULkVmn6-54" target="56HJz9ENn2LGzULkVmn6-327" edge="1">
          <mxGeometry relative="1" as="geometry">
            <mxPoint x="650" y="510" as="sourcePoint" />
            <mxPoint x="830" y="540" as="targetPoint" />
          </mxGeometry>
        </mxCell>
        <mxCell id="56HJz9ENn2LGzULkVmn6-333" value="C_Id" style="ellipse;whiteSpace=wrap;html=1;align=center;fontStyle=4;" parent="1" vertex="1">
          <mxGeometry x="-20" y="-50" width="70" height="40" as="geometry" />
        </mxCell>
        <mxCell id="56HJz9ENn2LGzULkVmn6-334" value="C_name" style="ellipse;whiteSpace=wrap;html=1;align=center;" parent="1" vertex="1">
          <mxGeometry x="-35" y="20" width="100" height="40" as="geometry" />
        </mxCell>
        <mxCell id="56HJz9ENn2LGzULkVmn6-337" value="C_Type" style="ellipse;whiteSpace=wrap;html=1;align=center;" parent="1" vertex="1">
          <mxGeometry x="10" y="80" width="100" height="40" as="geometry" />
        </mxCell>
        <mxCell id="56HJz9ENn2LGzULkVmn6-339" value="Email" style="ellipse;whiteSpace=wrap;html=1;align=center;" parent="1" vertex="1">
          <mxGeometry x="74" y="-150" width="90" height="40" as="geometry" />
        </mxCell>
        <mxCell id="56HJz9ENn2LGzULkVmn6-340" value="" style="endArrow=none;html=1;rounded=0;entryX=0.25;entryY=1;entryDx=0;entryDy=0;exitX=1;exitY=0;exitDx=0;exitDy=0;" parent="1" source="56HJz9ENn2LGzULkVmn6-337" target="56HJz9ENn2LGzULkVmn6-4" edge="1">
          <mxGeometry relative="1" as="geometry">
            <mxPoint x="50" y="110" as="sourcePoint" />
            <mxPoint x="210" y="110" as="targetPoint" />
          </mxGeometry>
        </mxCell>
        <mxCell id="56HJz9ENn2LGzULkVmn6-341" value="" style="endArrow=none;html=1;rounded=0;exitX=1;exitY=0;exitDx=0;exitDy=0;entryX=0;entryY=1;entryDx=0;entryDy=0;" parent="1" source="56HJz9ENn2LGzULkVmn6-334" target="56HJz9ENn2LGzULkVmn6-4" edge="1">
          <mxGeometry relative="1" as="geometry">
            <mxPoint x="50" y="40" as="sourcePoint" />
            <mxPoint x="210" y="40" as="targetPoint" />
          </mxGeometry>
        </mxCell>
        <mxCell id="56HJz9ENn2LGzULkVmn6-342" value="" style="endArrow=none;html=1;rounded=0;exitX=1;exitY=0.5;exitDx=0;exitDy=0;entryX=0;entryY=0.5;entryDx=0;entryDy=0;" parent="1" source="56HJz9ENn2LGzULkVmn6-333" target="56HJz9ENn2LGzULkVmn6-4" edge="1">
          <mxGeometry relative="1" as="geometry">
            <mxPoint x="60" y="20" as="sourcePoint" />
            <mxPoint x="220" y="20" as="targetPoint" />
          </mxGeometry>
        </mxCell>
        <mxCell id="56HJz9ENn2LGzULkVmn6-343" value="" style="endArrow=none;html=1;rounded=0;exitX=0.957;exitY=0.738;exitDx=0;exitDy=0;entryX=0.192;entryY=-0.055;entryDx=0;entryDy=0;entryPerimeter=0;exitPerimeter=0;" parent="1" source="56HJz9ENn2LGzULkVmn6-352" target="56HJz9ENn2LGzULkVmn6-4" edge="1">
          <mxGeometry relative="1" as="geometry">
            <mxPoint x="85.1677815203393" y="-65.78323725773544" as="sourcePoint" />
            <mxPoint x="270" y="-60" as="targetPoint" />
          </mxGeometry>
        </mxCell>
        <mxCell id="56HJz9ENn2LGzULkVmn6-344" value="" style="endArrow=none;html=1;rounded=0;exitX=0.587;exitY=1.017;exitDx=0;exitDy=0;exitPerimeter=0;entryX=0.392;entryY=-0.007;entryDx=0;entryDy=0;entryPerimeter=0;" parent="1" source="56HJz9ENn2LGzULkVmn6-339" target="56HJz9ENn2LGzULkVmn6-4" edge="1">
          <mxGeometry relative="1" as="geometry">
            <mxPoint x="160" y="-70" as="sourcePoint" />
            <mxPoint x="320" y="-70" as="targetPoint" />
          </mxGeometry>
        </mxCell>
        <mxCell id="56HJz9ENn2LGzULkVmn6-345" value="" style="endArrow=none;html=1;rounded=0;exitX=0.405;exitY=1.093;exitDx=0;exitDy=0;exitPerimeter=0;entryX=0.75;entryY=0;entryDx=0;entryDy=0;" parent="1" source="56HJz9ENn2LGzULkVmn6-350" target="56HJz9ENn2LGzULkVmn6-4" edge="1">
          <mxGeometry relative="1" as="geometry">
            <mxPoint x="233.49999999999955" y="-87.44000000000005" as="sourcePoint" />
            <mxPoint x="440" y="-70" as="targetPoint" />
          </mxGeometry>
        </mxCell>
        <mxCell id="56HJz9ENn2LGzULkVmn6-346" value="First_Name" style="ellipse;whiteSpace=wrap;html=1;align=center;" parent="1" vertex="1">
          <mxGeometry x="-150" y="-30" width="100" height="40" as="geometry" />
        </mxCell>
        <mxCell id="56HJz9ENn2LGzULkVmn6-347" value="Last_Name" style="ellipse;whiteSpace=wrap;html=1;align=center;" parent="1" vertex="1">
          <mxGeometry x="-160" y="30" width="100" height="40" as="geometry" />
        </mxCell>
        <mxCell id="56HJz9ENn2LGzULkVmn6-348" value="" style="endArrow=none;html=1;rounded=0;exitX=1;exitY=0.5;exitDx=0;exitDy=0;entryX=0;entryY=0;entryDx=0;entryDy=0;" parent="1" source="56HJz9ENn2LGzULkVmn6-346" target="56HJz9ENn2LGzULkVmn6-334" edge="1">
          <mxGeometry relative="1" as="geometry">
            <mxPoint x="-220" y="150" as="sourcePoint" />
            <mxPoint x="-20" y="60" as="targetPoint" />
          </mxGeometry>
        </mxCell>
        <mxCell id="56HJz9ENn2LGzULkVmn6-349" value="" style="endArrow=none;html=1;rounded=0;exitX=1;exitY=0.5;exitDx=0;exitDy=0;entryX=0;entryY=0.5;entryDx=0;entryDy=0;" parent="1" source="56HJz9ENn2LGzULkVmn6-347" target="56HJz9ENn2LGzULkVmn6-334" edge="1">
          <mxGeometry relative="1" as="geometry">
            <mxPoint x="-90" y="130" as="sourcePoint" />
            <mxPoint x="70" y="130" as="targetPoint" />
          </mxGeometry>
        </mxCell>
        <mxCell id="56HJz9ENn2LGzULkVmn6-350" value="DOB" style="ellipse;whiteSpace=wrap;html=1;align=center;" parent="1" vertex="1">
          <mxGeometry x="180" y="-130" width="100" height="40" as="geometry" />
        </mxCell>
        <mxCell id="56HJz9ENn2LGzULkVmn6-352" value="C_Phone" style="ellipse;shape=doubleEllipse;margin=3;whiteSpace=wrap;html=1;align=center;" parent="1" vertex="1">
          <mxGeometry x="-10" y="-110" width="100" height="40" as="geometry" />
        </mxCell>
        <mxCell id="56HJz9ENn2LGzULkVmn6-353" value="Item_No" style="ellipse;whiteSpace=wrap;html=1;align=center;fontStyle=4;" parent="1" vertex="1">
          <mxGeometry x="-110" y="140" width="65" height="40" as="geometry" />
        </mxCell>
        <mxCell id="56HJz9ENn2LGzULkVmn6-354" value="I_Name" style="ellipse;whiteSpace=wrap;html=1;align=center;" parent="1" vertex="1">
          <mxGeometry x="-170" y="180" width="65" height="40" as="geometry" />
        </mxCell>
        <mxCell id="56HJz9ENn2LGzULkVmn6-355" value="I_Type" style="ellipse;whiteSpace=wrap;html=1;align=center;" parent="1" vertex="1">
          <mxGeometry x="-200" y="230" width="70" height="40" as="geometry" />
        </mxCell>
        <mxCell id="56HJz9ENn2LGzULkVmn6-357" value="I_Qty" style="ellipse;whiteSpace=wrap;html=1;align=center;" parent="1" vertex="1">
          <mxGeometry x="-190" y="290" width="50" height="30" as="geometry" />
        </mxCell>
        <mxCell id="56HJz9ENn2LGzULkVmn6-358" value="I_Description" style="ellipse;whiteSpace=wrap;html=1;align=center;" parent="1" vertex="1">
          <mxGeometry x="-160" y="340" width="75" height="40" as="geometry" />
        </mxCell>
        <mxCell id="56HJz9ENn2LGzULkVmn6-359" value="" style="endArrow=none;html=1;rounded=0;exitX=1;exitY=1;exitDx=0;exitDy=0;entryX=0.25;entryY=0;entryDx=0;entryDy=0;" parent="1" source="56HJz9ENn2LGzULkVmn6-353" target="56HJz9ENn2LGzULkVmn6-20" edge="1">
          <mxGeometry relative="1" as="geometry">
            <mxPoint x="-100" y="310" as="sourcePoint" />
            <mxPoint x="60" y="310" as="targetPoint" />
          </mxGeometry>
        </mxCell>
        <mxCell id="56HJz9ENn2LGzULkVmn6-360" value="" style="endArrow=none;html=1;rounded=0;exitX=1;exitY=1;exitDx=0;exitDy=0;entryX=0;entryY=0.25;entryDx=0;entryDy=0;" parent="1" source="56HJz9ENn2LGzULkVmn6-354" target="56HJz9ENn2LGzULkVmn6-20" edge="1">
          <mxGeometry relative="1" as="geometry">
            <mxPoint x="-50" y="340" as="sourcePoint" />
            <mxPoint x="110" y="340" as="targetPoint" />
          </mxGeometry>
        </mxCell>
        <mxCell id="56HJz9ENn2LGzULkVmn6-361" value="" style="endArrow=none;html=1;rounded=0;exitX=1;exitY=0.5;exitDx=0;exitDy=0;entryX=0;entryY=0.5;entryDx=0;entryDy=0;" parent="1" source="56HJz9ENn2LGzULkVmn6-355" target="56HJz9ENn2LGzULkVmn6-20" edge="1">
          <mxGeometry relative="1" as="geometry">
            <mxPoint x="-150" y="320" as="sourcePoint" />
            <mxPoint x="10" y="320" as="targetPoint" />
          </mxGeometry>
        </mxCell>
        <mxCell id="56HJz9ENn2LGzULkVmn6-362" value="" style="endArrow=none;html=1;rounded=0;exitX=0.967;exitY=0.729;exitDx=0;exitDy=0;exitPerimeter=0;entryX=0;entryY=0.75;entryDx=0;entryDy=0;" parent="1" source="56HJz9ENn2LGzULkVmn6-357" target="56HJz9ENn2LGzULkVmn6-20" edge="1">
          <mxGeometry relative="1" as="geometry">
            <mxPoint x="-90" y="350" as="sourcePoint" />
            <mxPoint x="70" y="350" as="targetPoint" />
          </mxGeometry>
        </mxCell>
        <mxCell id="56HJz9ENn2LGzULkVmn6-363" value="" style="endArrow=none;html=1;rounded=0;exitX=1;exitY=0.5;exitDx=0;exitDy=0;entryX=0;entryY=1;entryDx=0;entryDy=0;" parent="1" source="56HJz9ENn2LGzULkVmn6-358" target="56HJz9ENn2LGzULkVmn6-20" edge="1">
          <mxGeometry relative="1" as="geometry">
            <mxPoint x="-100" y="370" as="sourcePoint" />
            <mxPoint x="60" y="370" as="targetPoint" />
          </mxGeometry>
        </mxCell>
        <mxCell id="56HJz9ENn2LGzULkVmn6-365" value="D_Name" style="ellipse;whiteSpace=wrap;html=1;align=center;" parent="1" vertex="1">
          <mxGeometry x="300" y="70" width="85" height="40" as="geometry" />
        </mxCell>
        <mxCell id="56HJz9ENn2LGzULkVmn6-367" value="DOB" style="ellipse;whiteSpace=wrap;html=1;align=center;" parent="1" vertex="1">
          <mxGeometry x="385" y="170" width="100" height="40" as="geometry" />
        </mxCell>
        <mxCell id="56HJz9ENn2LGzULkVmn6-368" value="" style="endArrow=none;html=1;rounded=0;exitX=1;exitY=0.5;exitDx=0;exitDy=0;entryX=0.25;entryY=0;entryDx=0;entryDy=0;" parent="1" source="56HJz9ENn2LGzULkVmn6-372" target="56HJz9ENn2LGzULkVmn6-8" edge="1">
          <mxGeometry relative="1" as="geometry">
            <mxPoint x="399.99999999999955" y="20" as="sourcePoint" />
            <mxPoint x="580" y="50" as="targetPoint" />
            <Array as="points" />
          </mxGeometry>
        </mxCell>
        <mxCell id="56HJz9ENn2LGzULkVmn6-369" value="" style="endArrow=none;html=1;rounded=0;exitX=1;exitY=0.5;exitDx=0;exitDy=0;entryX=0;entryY=0.5;entryDx=0;entryDy=0;" parent="1" source="56HJz9ENn2LGzULkVmn6-365" target="56HJz9ENn2LGzULkVmn6-8" edge="1">
          <mxGeometry relative="1" as="geometry">
            <mxPoint x="430" y="110" as="sourcePoint" />
            <mxPoint x="590" y="110" as="targetPoint" />
          </mxGeometry>
        </mxCell>
        <mxCell id="56HJz9ENn2LGzULkVmn6-370" value="" style="endArrow=none;html=1;rounded=0;exitX=1;exitY=0.5;exitDx=0;exitDy=0;entryX=0;entryY=1;entryDx=0;entryDy=0;" parent="1" source="fYG4LKg_ihNPn56d9QKD-2" target="56HJz9ENn2LGzULkVmn6-8" edge="1">
          <mxGeometry relative="1" as="geometry">
            <mxPoint x="423.99999999999955" y="134" as="sourcePoint" />
            <mxPoint x="640" y="130" as="targetPoint" />
          </mxGeometry>
        </mxCell>
        <mxCell id="56HJz9ENn2LGzULkVmn6-371" value="" style="endArrow=none;html=1;rounded=0;exitX=0.5;exitY=0;exitDx=0;exitDy=0;entryX=0.25;entryY=1;entryDx=0;entryDy=0;" parent="1" source="56HJz9ENn2LGzULkVmn6-367" target="56HJz9ENn2LGzULkVmn6-8" edge="1">
          <mxGeometry relative="1" as="geometry">
            <mxPoint x="480" y="140" as="sourcePoint" />
            <mxPoint x="640" y="140" as="targetPoint" />
          </mxGeometry>
        </mxCell>
        <mxCell id="56HJz9ENn2LGzULkVmn6-372" value="&lt;span style=&quot;border-bottom: 1px dotted&quot;&gt;D_ID&lt;/span&gt;" style="ellipse;whiteSpace=wrap;html=1;align=center;" parent="1" vertex="1">
          <mxGeometry x="310" y="20" width="80" height="40" as="geometry" />
        </mxCell>
        <mxCell id="56HJz9ENn2LGzULkVmn6-374" value="N" style="text;html=1;align=center;verticalAlign=middle;resizable=0;points=[];autosize=1;strokeColor=none;fillColor=none;" parent="1" vertex="1">
          <mxGeometry x="830" y="240" width="30" height="30" as="geometry" />
        </mxCell>
        <mxCell id="56HJz9ENn2LGzULkVmn6-376" value="1" style="text;html=1;align=center;verticalAlign=middle;resizable=0;points=[];autosize=1;strokeColor=none;fillColor=none;" parent="1" vertex="1">
          <mxGeometry x="950" y="485" width="30" height="30" as="geometry" />
        </mxCell>
        <mxCell id="fYG4LKg_ihNPn56d9QKD-2" value="Address" style="ellipse;whiteSpace=wrap;html=1;align=center;" parent="1" vertex="1">
          <mxGeometry x="320" y="120" width="100" height="40" as="geometry" />
        </mxCell>
        <mxCell id="m53k4gZOYaVDXejNvknt-1" style="edgeStyle=orthogonalEdgeStyle;rounded=0;orthogonalLoop=1;jettySize=auto;html=1;exitX=0.5;exitY=1;exitDx=0;exitDy=0;strokeColor=#6666FF;" parent="1" source="56HJz9ENn2LGzULkVmn6-7" target="56HJz9ENn2LGzULkVmn6-7" edge="1">
          <mxGeometry relative="1" as="geometry" />
        </mxCell>
        <mxCell id="m53k4gZOYaVDXejNvknt-2" value="M" style="text;html=1;align=center;verticalAlign=middle;resizable=0;points=[];autosize=1;strokeColor=none;fillColor=none;" parent="1" vertex="1">
          <mxGeometry x="465" y="758" width="30" height="30" as="geometry" />
        </mxCell>
        <mxCell id="BLGMk3jxmhgaksH6H5B6-4" value="N" style="text;html=1;align=center;verticalAlign=middle;resizable=0;points=[];autosize=1;strokeColor=none;fillColor=none;" vertex="1" parent="1">
          <mxGeometry x="50" y="270" width="30" height="30" as="geometry" />
        </mxCell>
        <mxCell id="BLGMk3jxmhgaksH6H5B6-5" value="M" style="text;html=1;align=center;verticalAlign=middle;resizable=0;points=[];autosize=1;strokeColor=none;fillColor=none;" vertex="1" parent="1">
          <mxGeometry x="145" y="18" width="30" height="30" as="geometry" />
        </mxCell>
        <mxCell id="BLGMk3jxmhgaksH6H5B6-6" value="N" style="text;html=1;align=center;verticalAlign=middle;resizable=0;points=[];autosize=1;strokeColor=none;fillColor=none;" vertex="1" parent="1">
          <mxGeometry x="45" y="458" width="30" height="30" as="geometry" />
        </mxCell>
      </root>
    </mxGraphModel>
  </diagram>
</mxfile>
